<?xml version="1.0" encoding="UTF-8" standalone="no"?>
<!DOCTYPE svg PUBLIC "-//W3C//DTD SVG 1.1//EN"
 "http://www.w3.org/Graphics/SVG/1.1/DTD/svg11.dtd">
<!-- Generated by graphviz version 2.40.1 (20161225.0304)
 -->
<!-- Pages: 1 -->
<svg width="153pt" height="218pt"
 viewBox="0.00 0.00 153.00 218.00" xmlns="http://www.w3.org/2000/svg" xmlns:xlink="http://www.w3.org/1999/xlink">
<g id="graph0" class="graph" transform="scale(1 1) rotate(0) translate(4 214)">
<polygon fill="#ffffff" stroke="transparent" points="-4,4 -4,-214 149,-214 149,4 -4,4"/>
<!-- 0 -->
<g id="node1" class="node">
<title>0</title>
<ellipse fill="none" stroke="#00ff00" cx="90" cy="-192" rx="27" ry="18"/>
<text text-anchor="middle" x="90" y="-188.3" font-family="Times,serif" font-size="14.00" fill="#000000">0</text>
</g>
<!-- 1 -->
<g id="node2" class="node">
<title>1</title>
<ellipse fill="none" stroke="#ff0000" cx="27" cy="-105" rx="27" ry="18"/>
<text text-anchor="middle" x="27" y="-101.3" font-family="Times,serif" font-size="14.00" fill="#000000">1</text>
</g>
<!-- 0&#45;&gt;1 -->
<g id="edge1" class="edge">
<title>0&#45;&gt;1</title>
<path fill="none" stroke="#000000" d="M78.15,-175.64C68.735,-162.63 55.419,-144.25 44.734,-129.49"/>
<polygon fill="#000000" stroke="#000000" points="47.4965,-127.3373 38.797,-121.29 41.8266,-131.4425 47.4965,-127.3373"/>
<text text-anchor="middle" x="85.5" y="-144.8" font-family="Times,serif" font-size="14.00" fill="#000000">[0, 1, 3]</text>
</g>
<!-- 2 -->
<g id="node3" class="node">
<title>2</title>
<ellipse fill="none" stroke="#000000" cx="66" cy="-18" rx="27" ry="18"/>
<text text-anchor="middle" x="66" y="-14.3" font-family="Times,serif" font-size="14.00" fill="#000000">2</text>
</g>
<!-- 0&#45;&gt;2 -->
<g id="edge2" class="edge">
<title>0&#45;&gt;2</title>
<path fill="none" stroke="#000000" d="M102.58,-175.89C117.13,-155.2 137.68,-118.23 126,-87 118.98,-68.231 104.3,-51.196 91.212,-38.748"/>
<polygon fill="#000000" stroke="#000000" points="93.5149,-36.1114 83.763,-31.97 88.8038,-41.2889 93.5149,-36.1114"/>
<text text-anchor="middle" x="137" y="-101.3" font-family="Times,serif" font-size="14.00" fill="#000000">[2]</text>
</g>
<!-- 1&#45;&gt;1 -->
<g id="edge3" class="edge">
<title>1&#45;&gt;1</title>
<path fill="none" stroke="#000000" d="M51.532,-112.75C62.508,-113.49 72,-110.91 72,-105 72,-101.03 67.715,-98.563 61.574,-97.594"/>
<polygon fill="#000000" stroke="#000000" points="61.6466,-94.0945 51.532,-97.248 61.4055,-101.0904 61.6466,-94.0945"/>
<text text-anchor="middle" x="94.5" y="-101.3" font-family="Times,serif" font-size="14.00" fill="#000000">[0, 1, 3]</text>
</g>
<!-- 1&#45;&gt;2 -->
<g id="edge4" class="edge">
<title>1&#45;&gt;2</title>
<path fill="none" stroke="#000000" d="M24.023,-86.798C23.178,-76.721 23.491,-64.207 28,-54 30.651,-47.999 34.829,-42.52 39.461,-37.746"/>
<polygon fill="#000000" stroke="#000000" points="41.9683,-40.1953 46.96,-30.85 37.23,-35.0427 41.9683,-40.1953"/>
<text text-anchor="middle" x="36" y="-57.8" font-family="Times,serif" font-size="14.00" fill="#000000">[2]</text>
</g>
<!-- 2&#45;&gt;1 -->
<g id="edge5" class="edge">
<title>2&#45;&gt;1</title>
<path fill="none" stroke="#000000" d="M58.611,-35.531C54.409,-45.399 49.001,-57.927 44,-69 42.606,-72.087 41.123,-75.311 39.636,-78.506"/>
<polygon fill="#000000" stroke="#000000" points="36.3341,-77.3031 35.247,-87.842 42.669,-80.2812 36.3341,-77.3031"/>
<text text-anchor="middle" x="66.5" y="-57.8" font-family="Times,serif" font-size="14.00" fill="#000000">[1, 3]</text>
</g>
<!-- 2&#45;&gt;2 -->
<g id="edge6" class="edge">
<title>2&#45;&gt;2</title>
<path fill="none" stroke="#000000" d="M90.532,-25.752C101.51,-26.49 111,-23.906 111,-18 111,-14.032 106.72,-11.563 100.57,-10.594"/>
<polygon fill="#000000" stroke="#000000" points="100.6467,-7.0947 90.532,-10.248 100.4055,-14.0905 100.6467,-7.0947"/>
<text text-anchor="middle" x="126.5" y="-14.3" font-family="Times,serif" font-size="14.00" fill="#000000">[0, 2]</text>
</g>
</g>
</svg>
