<?xml version="1.0" encoding="UTF-8" standalone="no"?>
<!DOCTYPE svg PUBLIC "-//W3C//DTD SVG 1.1//EN"
 "http://www.w3.org/Graphics/SVG/1.1/DTD/svg11.dtd">
<!-- Generated by graphviz version 2.40.1 (20161225.0304)
 -->
<!-- Pages: 1 -->
<svg width="263pt" height="360pt"
 viewBox="0.00 0.00 262.60 360.00" xmlns="http://www.w3.org/2000/svg" xmlns:xlink="http://www.w3.org/1999/xlink">
<g id="graph0" class="graph" transform="scale(1 1) rotate(0) translate(4 356)">
<polygon fill="#ffffff" stroke="transparent" points="-4,4 -4,-356 258.5975,-356 258.5975,4 -4,4"/>
<!-- 0 -->
<g id="node1" class="node">
<title>0</title>
<ellipse fill="none" stroke="#000000" cx="94.5975" cy="-334" rx="27" ry="18"/>
<text text-anchor="middle" x="94.5975" y="-330.3" font-family="Times,serif" font-size="14.00" fill="#000000">0</text>
</g>
<!-- 6,1,0 -->
<g id="node2" class="node">
<title>6,1,0</title>
<ellipse fill="none" stroke="#ffa500" cx="28.5975" cy="-255" rx="28.6953" ry="18"/>
<text text-anchor="middle" x="28.5975" y="-251.3" font-family="Times,serif" font-size="14.00" fill="#000000">6,1,0</text>
</g>
<!-- 0&#45;&gt;6,1,0 -->
<g id="edge1" class="edge">
<title>0&#45;&gt;6,1,0</title>
<path fill="none" stroke="#000000" d="M81.2414,-318.0132C71.8482,-306.7698 59.1165,-291.5304 48.5268,-278.8548"/>
<polygon fill="#000000" stroke="#000000" points="51.0311,-276.3933 41.9337,-270.9631 45.6591,-280.8813 51.0311,-276.3933"/>
<text text-anchor="middle" x="88.5975" y="-293.2" font-family="Times,serif" font-size="6.00" fill="#000000">*[[0],[1]],[[3],[3]]*</text>
</g>
<!-- 9 -->
<g id="node3" class="node">
<title>9</title>
<ellipse fill="none" stroke="#ffa500" cx="161.5975" cy="-176" rx="27" ry="18"/>
<text text-anchor="middle" x="161.5975" y="-172.3" font-family="Times,serif" font-size="14.00" fill="#000000">9</text>
</g>
<!-- 0&#45;&gt;9 -->
<g id="edge2" class="edge">
<title>0&#45;&gt;9</title>
<path fill="none" stroke="#000000" d="M107.0946,-317.9748C115.8346,-306.1144 127.2196,-289.2609 134.5975,-273 144.6991,-250.7357 151.8221,-223.8458 156.2058,-204.0303"/>
<polygon fill="#000000" stroke="#000000" points="159.6611,-204.6075 158.3054,-194.0998 152.8125,-203.1595 159.6611,-204.6075"/>
<text text-anchor="middle" x="161.5975" y="-253.7" font-family="Times,serif" font-size="6.00" fill="#000000">*[[2],[2]]*</text>
</g>
<!-- 6,1,0&#45;&gt;6,1,0 -->
<g id="edge5" class="edge">
<title>6,1,0&#45;&gt;6,1,0</title>
<path fill="none" stroke="#000000" d="M54.9442,-262.0624C65.9043,-262.5494 75.1949,-260.1953 75.1949,-255 75.1949,-251.5906 71.1938,-249.4047 65.3454,-248.4425"/>
<polygon fill="#000000" stroke="#000000" points="65.1021,-244.9267 54.9442,-247.9376 64.7627,-251.9184 65.1021,-244.9267"/>
<text text-anchor="middle" x="100.1949" y="-253.7" font-family="Times,serif" font-size="6.00" fill="#000000">*[[0],[1]],[[3],[3]]*</text>
</g>
<!-- 6,1,0&#45;&gt;9 -->
<g id="edge6" class="edge">
<title>6,1,0&#45;&gt;9</title>
<path fill="none" stroke="#000000" d="M49.6717,-242.4822C71.9822,-229.2301 107.3598,-208.2164 132.3608,-193.3661"/>
<polygon fill="#000000" stroke="#000000" points="134.2486,-196.3158 141.0588,-188.1996 130.6737,-190.2974 134.2486,-196.3158"/>
<text text-anchor="middle" x="113.5975" y="-214.2" font-family="Times,serif" font-size="6.00" fill="#000000">*[[2],[2]]*</text>
</g>
<!-- 5,1,0 -->
<g id="node4" class="node">
<title>5,1,0</title>
<ellipse fill="none" stroke="#0000ff" cx="155.5975" cy="-18" rx="28.6953" ry="18"/>
<text text-anchor="middle" x="155.5975" y="-14.3" font-family="Times,serif" font-size="14.00" fill="#000000">5,1,0</text>
</g>
<!-- 9&#45;&gt;5,1,0 -->
<g id="edge7" class="edge">
<title>9&#45;&gt;5,1,0</title>
<path fill="none" stroke="#000000" d="M175.6683,-160.2408C185.0369,-148.6391 196.5242,-131.9884 201.5975,-115 206.1758,-99.669 206.677,-94.1723 201.5975,-79 196.8997,-64.9679 187.5604,-51.5812 178.5172,-40.9423"/>
<polygon fill="#000000" stroke="#000000" points="181.0202,-38.4909 171.7413,-33.377 175.8059,-43.1612 181.0202,-38.4909"/>
<text text-anchor="middle" x="229.5975" y="-95.7" font-family="Times,serif" font-size="6.00" fill="#000000">*[[1],[1]],[[3],[3]]*</text>
</g>
<!-- 11 -->
<g id="node5" class="node">
<title>11</title>
<ellipse fill="none" stroke="#ff0000" cx="57.5975" cy="-97" rx="27" ry="18"/>
<text text-anchor="middle" x="57.5975" y="-93.3" font-family="Times,serif" font-size="14.00" fill="#000000">11</text>
</g>
<!-- 9&#45;&gt;11 -->
<g id="edge8" class="edge">
<title>9&#45;&gt;11</title>
<path fill="none" stroke="#000000" d="M143.482,-162.2393C126.9287,-149.6651 102.2612,-130.9273 83.6039,-116.7549"/>
<polygon fill="#000000" stroke="#000000" points="85.5855,-113.8649 75.5053,-110.6031 81.3513,-119.4391 85.5855,-113.8649"/>
<text text-anchor="middle" x="138.5975" y="-135.2" font-family="Times,serif" font-size="6.00" fill="#000000">*[[0],[0]],[[2],[2]]*</text>
</g>
<!-- 5,1,0&#45;&gt;6,1,0 -->
<g id="edge3" class="edge">
<title>5,1,0&#45;&gt;6,1,0</title>
<path fill="none" stroke="#000000" d="M127.5038,-21.8137C95.5833,-27.8139 44.9049,-42.7811 21.5975,-79 -7.5959,-124.3654 6.7702,-190.786 18.5241,-227.6995"/>
<polygon fill="#000000" stroke="#000000" points="15.2395,-228.9138 21.7316,-237.2866 21.8779,-226.6927 15.2395,-228.9138"/>
<text text-anchor="middle" x="30.5975" y="-135.2" font-family="Times,serif" font-size="6.00" fill="#000000">*[[0],[1]],[[3],[3]]*</text>
</g>
<!-- 5,1,0&#45;&gt;9 -->
<g id="edge4" class="edge">
<title>5,1,0&#45;&gt;9</title>
<path fill="none" stroke="#000000" d="M160.1833,-35.8385C161.4965,-41.5982 162.7897,-48.0361 163.5975,-54 168.7333,-91.9173 170.7535,-101.8668 167.5975,-140 167.3825,-142.5969 167.0818,-145.2885 166.7284,-147.9773"/>
<polygon fill="#000000" stroke="#000000" points="163.2282,-147.7132 165.1745,-158.1277 170.1475,-148.7726 163.2282,-147.7132"/>
<text text-anchor="middle" x="183.5975" y="-95.7" font-family="Times,serif" font-size="6.00" fill="#000000">*[[2],[2]]*</text>
</g>
<!-- 11&#45;&gt;5,1,0 -->
<g id="edge9" class="edge">
<title>11&#45;&gt;5,1,0</title>
<path fill="none" stroke="#000000" d="M75.1179,-82.8764C90.3527,-70.5953 112.6281,-52.6386 129.8835,-38.7286"/>
<polygon fill="#000000" stroke="#000000" points="132.3095,-41.2686 137.8983,-32.2677 127.9163,-35.8188 132.3095,-41.2686"/>
<text text-anchor="middle" x="134.5975" y="-56.2" font-family="Times,serif" font-size="6.00" fill="#000000">*[[1],[1]],[[3],[3]]*</text>
</g>
<!-- 11&#45;&gt;11 -->
<g id="edge10" class="edge">
<title>11&#45;&gt;11</title>
<path fill="none" stroke="#000000" d="M82.5864,-104.0398C93.3671,-104.6161 102.5975,-102.2695 102.5975,-97 102.5975,-93.5419 98.6223,-91.3425 92.8425,-90.402"/>
<polygon fill="#000000" stroke="#000000" points="92.7278,-86.8939 82.5864,-89.9602 92.4264,-93.8874 92.7278,-86.8939"/>
<text text-anchor="middle" x="127.5975" y="-95.7" font-family="Times,serif" font-size="6.00" fill="#000000">*[[0],[0]],[[2],[2]]*</text>
</g>
</g>
</svg>
