<?xml version="1.0" encoding="UTF-8" standalone="no"?>
<!DOCTYPE svg PUBLIC "-//W3C//DTD SVG 1.1//EN"
 "http://www.w3.org/Graphics/SVG/1.1/DTD/svg11.dtd">
<!-- Generated by graphviz version 2.40.1 (20161225.0304)
 -->
<!-- Title: G Pages: 1 -->
<svg width="321pt" height="407pt"
 viewBox="0.00 0.00 321.17 406.78" xmlns="http://www.w3.org/2000/svg" xmlns:xlink="http://www.w3.org/1999/xlink">
<g id="graph0" class="graph" transform="scale(1 1) rotate(0) translate(4 402.782)">
<title>G</title>
<polygon fill="#ffffff" stroke="transparent" points="-4,4 -4,-402.782 317.1721,-402.782 317.1721,4 -4,4"/>
<!-- 0 -->
<g id="node1" class="node">
<title>0</title>
<ellipse fill="#add8e6" stroke="#000000" cx="237.9772" cy="-341.5871" rx="57.3905" ry="57.3905"/>
<text text-anchor="middle" x="237.9772" y="-337.8871" font-family="Times,serif" font-size="14.00" fill="#000000">2&#45;2:[x00x02]</text>
</g>
<!-- 0&#45;&gt;0 -->
<g id="edge7" class="edge">
<title>0&#45;&gt;0</title>
<path fill="none" stroke="#000000" d="M291.7123,-361.7576C304.0841,-360.0196 313.1721,-353.2961 313.1721,-341.5871 313.1721,-333.3542 308.6791,-327.5861 301.7108,-324.2827"/>
<polygon fill="#000000" stroke="#000000" points="302.2896,-320.8077 291.7123,-321.4165 300.3606,-327.5367 302.2896,-320.8077"/>
</g>
<!-- 1 -->
<g id="node2" class="node">
<title>1</title>
<polygon fill="#add8e6" stroke="#000000" points="254.792,-222.9363 254.792,-237.848 218.5817,-248.3922 167.3727,-248.3922 131.1624,-237.848 131.1624,-222.9363 167.3727,-212.3922 218.5817,-212.3922 254.792,-222.9363"/>
<text text-anchor="middle" x="192.9772" y="-226.6922" font-family="Times,serif" font-size="14.00" fill="#000000">1&#45;3:[x01x03]</text>
</g>
<!-- 0&#45;&gt;1 -->
<g id="edge8" class="edge">
<title>0&#45;&gt;1</title>
<path fill="none" stroke="#000000" d="M216.3998,-288.2694C212.1592,-277.7908 207.8748,-267.204 204.1505,-258.0013"/>
<polygon fill="#000000" stroke="#000000" points="207.3535,-256.5859 200.3576,-248.6292 200.8647,-259.2119 207.3535,-256.5859"/>
</g>
<!-- 2 -->
<g id="node3" class="node">
<title>2</title>
<polygon fill="#add8e6" stroke="#000000" points="155.9327,-146.9363 155.9327,-161.848 111.439,-172.3922 48.5154,-172.3922 4.0217,-161.848 4.0217,-146.9363 48.5154,-136.3922 111.439,-136.3922 155.9327,-146.9363"/>
<polygon fill="none" stroke="#000000" points="159.9316,-143.7732 159.9316,-165.0111 111.9062,-176.3922 48.0482,-176.3922 .0228,-165.0111 .0228,-143.7732 48.0482,-132.3922 111.9062,-132.3922 159.9316,-143.7732"/>
<text text-anchor="middle" x="79.9772" y="-150.6922" font-family="Times,serif" font-size="14.00" fill="#000000">1&#45;0:[x00x01x03]</text>
</g>
<!-- 1&#45;&gt;2 -->
<g id="edge3" class="edge">
<title>1&#45;&gt;2</title>
<path fill="none" stroke="#000000" d="M166.4837,-212.5735C153.0691,-203.5513 136.4753,-192.3909 121.4202,-182.2653"/>
<polygon fill="#000000" stroke="#000000" points="123.0205,-179.1237 112.7694,-176.4471 119.1139,-184.9322 123.0205,-179.1237"/>
</g>
<!-- 3 -->
<g id="node4" class="node">
<title>3</title>
<ellipse fill="#add8e6" stroke="#000000" cx="214.9772" cy="-48.1961" rx="44.3766" ry="44.3766"/>
<ellipse fill="none" stroke="#000000" cx="214.9772" cy="-48.1961" rx="48.393" ry="48.393"/>
<text text-anchor="middle" x="214.9772" y="-44.4961" font-family="Times,serif" font-size="14.00" fill="#000000">2&#45;1:[x02]</text>
</g>
<!-- 1&#45;&gt;3 -->
<g id="edge4" class="edge">
<title>1&#45;&gt;3</title>
<path fill="none" stroke="#000000" d="M190.9236,-212.2564C191.5423,-187.4921 196.3506,-141.968 201.791,-105.1465"/>
<polygon fill="#000000" stroke="#000000" points="205.2882,-105.4303 203.3392,-95.0162 198.3685,-104.3727 205.2882,-105.4303"/>
</g>
<!-- 2&#45;&gt;2 -->
<g id="edge1" class="edge">
<title>2&#45;&gt;2</title>
<path fill="none" stroke="#000000" d="M144.9893,-168.5865C163.6023,-168.0299 177.9544,-163.2984 177.9544,-154.3922 177.9544,-147.2254 168.6611,-142.7619 155.3325,-141.0017"/>
<polygon fill="#000000" stroke="#000000" points="155.2305,-137.4833 144.9893,-140.1978 154.688,-144.4623 155.2305,-137.4833"/>
</g>
<!-- 2&#45;&gt;3 -->
<g id="edge2" class="edge">
<title>2&#45;&gt;3</title>
<path fill="none" stroke="#000000" d="M107.9493,-132.3883C125.6081,-118.4972 148.8396,-100.2224 169.1449,-84.2495"/>
<polygon fill="#000000" stroke="#000000" points="171.3607,-86.9596 177.0565,-78.026 167.0328,-81.4578 171.3607,-86.9596"/>
</g>
<!-- 3&#45;&gt;0 -->
<g id="edge5" class="edge">
<title>3&#45;&gt;0</title>
<path fill="none" stroke="#000000" d="M235.5132,-91.8223C252.0749,-132.0414 271.4744,-193.6194 263.9772,-248.3922 262.6923,-257.7795 260.7113,-267.5545 258.4034,-277.0907"/>
<polygon fill="#000000" stroke="#000000" points="254.9776,-276.3606 255.8955,-286.9156 261.7602,-278.092 254.9776,-276.3606"/>
</g>
<!-- 3&#45;&gt;1 -->
<g id="edge6" class="edge">
<title>3&#45;&gt;1</title>
<path fill="none" stroke="#000000" d="M215.1795,-96.5467C212.3127,-130.2897 206.6822,-174.1517 201.408,-202.2941"/>
<polygon fill="#000000" stroke="#000000" points="197.9448,-201.7635 199.4105,-212.2564 204.8082,-203.1396 197.9448,-201.7635"/>
</g>
</g>
</svg>
