<?xml version="1.0" encoding="UTF-8" standalone="no"?>
<!DOCTYPE svg PUBLIC "-//W3C//DTD SVG 1.1//EN"
 "http://www.w3.org/Graphics/SVG/1.1/DTD/svg11.dtd">
<!-- Generated by graphviz version 2.40.1 (20161225.0304)
 -->
<!-- Pages: 1 -->
<svg width="339pt" height="305pt"
 viewBox="0.00 0.00 339.00 305.00" xmlns="http://www.w3.org/2000/svg" xmlns:xlink="http://www.w3.org/1999/xlink">
<g id="graph0" class="graph" transform="scale(1 1) rotate(0) translate(4 301)">
<polygon fill="#ffffff" stroke="transparent" points="-4,4 -4,-301 335,-301 335,4 -4,4"/>
<!-- 0 -->
<g id="node1" class="node">
<title>0</title>
<ellipse fill="none" stroke="#00ff00" cx="231" cy="-279" rx="27" ry="18"/>
<text text-anchor="middle" x="231" y="-275.3" font-family="Times,serif" font-size="14.00" fill="#000000">0</text>
</g>
<!-- 1 -->
<g id="node2" class="node">
<title>1</title>
<ellipse fill="none" stroke="#ff0000" cx="159" cy="-192" rx="27" ry="18"/>
<text text-anchor="middle" x="159" y="-188.3" font-family="Times,serif" font-size="14.00" fill="#000000">1</text>
</g>
<!-- 0&#45;&gt;1 -->
<g id="edge1" class="edge">
<title>0&#45;&gt;1</title>
<path fill="none" stroke="#000000" d="M217.79,-263.04C206.83,-249.8 191.08,-230.77 178.64,-215.73"/>
<polygon fill="#000000" stroke="#000000" points="181.1949,-213.3277 172.12,-207.86 175.8045,-217.7936 181.1949,-213.3277"/>
<text text-anchor="middle" x="208" y="-231.8" font-family="Times,serif" font-size="14.00" fill="#000000">[0]</text>
</g>
<!-- 2 -->
<g id="node3" class="node">
<title>2</title>
<ellipse fill="none" stroke="#000000" cx="27" cy="-105" rx="27" ry="18"/>
<text text-anchor="middle" x="27" y="-101.3" font-family="Times,serif" font-size="14.00" fill="#000000">2</text>
</g>
<!-- 0&#45;&gt;2 -->
<g id="edge2" class="edge">
<title>0&#45;&gt;2</title>
<path fill="none" stroke="#000000" d="M207.74,-269.55C181.39,-258.09 138.1,-236.93 107,-210 80.237,-186.82 56.64,-153.38 42.136,-130.5"/>
<polygon fill="#000000" stroke="#000000" points="45.1049,-128.6463 36.854,-122 39.1593,-132.341 45.1049,-128.6463"/>
<text text-anchor="middle" x="115" y="-188.3" font-family="Times,serif" font-size="14.00" fill="#000000">[1]</text>
</g>
<!-- 3 -->
<g id="node4" class="node">
<title>3</title>
<ellipse fill="none" stroke="#000000" cx="228" cy="-105" rx="27" ry="18"/>
<text text-anchor="middle" x="228" y="-101.3" font-family="Times,serif" font-size="14.00" fill="#000000">3</text>
</g>
<!-- 0&#45;&gt;3 -->
<g id="edge3" class="edge">
<title>0&#45;&gt;3</title>
<path fill="none" stroke="#000000" d="M230.68,-260.71C230.16,-230.34 229.11,-169.32 228.49,-133.35"/>
<polygon fill="#000000" stroke="#000000" points="231.9843,-132.9873 228.31,-123.05 224.9854,-133.1097 231.9843,-132.9873"/>
<text text-anchor="middle" x="238" y="-188.3" font-family="Times,serif" font-size="14.00" fill="#000000">[2]</text>
</g>
<!-- 4 -->
<g id="node5" class="node">
<title>4</title>
<ellipse fill="none" stroke="#ff0000" cx="241" cy="-18" rx="27" ry="18"/>
<text text-anchor="middle" x="241" y="-14.3" font-family="Times,serif" font-size="14.00" fill="#000000">4</text>
</g>
<!-- 0&#45;&gt;4 -->
<g id="edge4" class="edge">
<title>0&#45;&gt;4</title>
<path fill="none" stroke="#000000" d="M242.98,-262.78C262.26,-235.57 299.36,-178.25 313,-123 316.83,-107.47 319.28,-101.72 313,-87 304.03,-65.982 285.17,-48.294 269,-36.091"/>
<polygon fill="#000000" stroke="#000000" points="271.018,-33.2311 260.86,-30.22 266.9231,-38.9085 271.018,-33.2311"/>
<text text-anchor="middle" x="315" y="-144.8" font-family="Times,serif" font-size="14.00" fill="#000000">[3]</text>
</g>
<!-- 1&#45;&gt;1 -->
<g id="edge5" class="edge">
<title>1&#45;&gt;1</title>
<path fill="none" stroke="#000000" d="M183.53,-199.75C194.51,-200.49 204,-197.91 204,-192 204,-188.03 199.72,-185.56 193.57,-184.59"/>
<polygon fill="#000000" stroke="#000000" points="193.6428,-181.0906 183.53,-184.25 193.4058,-188.0865 193.6428,-181.0906"/>
<text text-anchor="middle" x="212" y="-188.3" font-family="Times,serif" font-size="14.00" fill="#000000">[0]</text>
</g>
<!-- 1&#45;&gt;2 -->
<g id="edge6" class="edge">
<title>1&#45;&gt;2</title>
<path fill="none" stroke="#000000" d="M145,-176.3C134.7,-165.42 119.95,-151.11 105,-141 91.248,-131.7 74.708,-123.68 60.405,-117.59"/>
<polygon fill="#000000" stroke="#000000" points="61.5012,-114.2562 50.922,-113.68 58.8328,-120.7277 61.5012,-114.2562"/>
<text text-anchor="middle" x="131" y="-144.8" font-family="Times,serif" font-size="14.00" fill="#000000">[1]</text>
</g>
<!-- 1&#45;&gt;3 -->
<g id="edge7" class="edge">
<title>1&#45;&gt;3</title>
<path fill="none" stroke="#000000" d="M171.66,-176.04C182.09,-162.88 197.07,-144 208.95,-129.02"/>
<polygon fill="#000000" stroke="#000000" points="211.7196,-131.1604 215.19,-121.15 206.2345,-126.8113 211.7196,-131.1604"/>
<text text-anchor="middle" x="206" y="-144.8" font-family="Times,serif" font-size="14.00" fill="#000000">[2]</text>
</g>
<!-- 1&#45;&gt;4 -->
<g id="edge8" class="edge">
<title>1&#45;&gt;4</title>
<path fill="none" stroke="#000000" d="M158.77,-173.95C159.18,-152.22 162.12,-115.16 176,-87 185.25,-68.244 201.33,-51.109 215.18,-38.605"/>
<polygon fill="#000000" stroke="#000000" points="217.7567,-41.0028 223.01,-31.802 213.1657,-35.7186 217.7567,-41.0028"/>
<text text-anchor="middle" x="184" y="-101.3" font-family="Times,serif" font-size="14.00" fill="#000000">[3]</text>
</g>
<!-- 2&#45;&gt;2 -->
<g id="edge9" class="edge">
<title>2&#45;&gt;2</title>
<path fill="none" stroke="#000000" d="M51.532,-112.75C62.508,-113.49 72,-110.91 72,-105 72,-101.03 67.715,-98.563 61.574,-97.594"/>
<polygon fill="#000000" stroke="#000000" points="61.6466,-94.0945 51.532,-97.248 61.4055,-101.0904 61.6466,-94.0945"/>
<text text-anchor="middle" x="101.5" y="-101.3" font-family="Times,serif" font-size="14.00" fill="#000000">[0, 1, 2, 3]</text>
</g>
<!-- 3&#45;&gt;3 -->
<g id="edge10" class="edge">
<title>3&#45;&gt;3</title>
<path fill="none" stroke="#000000" d="M252.53,-112.75C263.51,-113.49 273,-110.91 273,-105 273,-101.03 268.72,-98.563 262.57,-97.594"/>
<polygon fill="#000000" stroke="#000000" points="262.6446,-94.0946 252.53,-97.248 262.4035,-101.0904 262.6446,-94.0946"/>
<text text-anchor="middle" x="288.5" y="-101.3" font-family="Times,serif" font-size="14.00" fill="#000000">[0, 2]</text>
</g>
<!-- 3&#45;&gt;4 -->
<g id="edge11" class="edge">
<title>3&#45;&gt;4</title>
<path fill="none" stroke="#000000" d="M218.8,-87.846C214.65,-77.878 211.4,-65.128 215,-54 216.36,-49.791 218.42,-45.661 220.79,-41.785"/>
<polygon fill="#000000" stroke="#000000" points="223.8682,-43.4898 226.72,-33.286 218.1275,-39.4843 223.8682,-43.4898"/>
<text text-anchor="middle" x="230.5" y="-57.8" font-family="Times,serif" font-size="14.00" fill="#000000">[1, 3]</text>
</g>
<!-- 4&#45;&gt;3 -->
<g id="edge12" class="edge">
<title>4&#45;&gt;3</title>
<path fill="none" stroke="#000000" d="M245.64,-36.131C247.44,-45.962 248.53,-58.263 246,-69 245.23,-72.264 244.11,-75.57 242.81,-78.787"/>
<polygon fill="#000000" stroke="#000000" points="239.5488,-77.4992 238.5,-88.042 245.8945,-80.4544 239.5488,-77.4992"/>
<text text-anchor="middle" x="256" y="-57.8" font-family="Times,serif" font-size="14.00" fill="#000000">[2]</text>
</g>
<!-- 4&#45;&gt;4 -->
<g id="edge13" class="edge">
<title>4&#45;&gt;4</title>
<path fill="none" stroke="#000000" d="M265.53,-25.752C276.51,-26.49 286,-23.906 286,-18 286,-14.032 281.72,-11.563 275.57,-10.594"/>
<polygon fill="#000000" stroke="#000000" points="275.6446,-7.0946 265.53,-10.248 275.4035,-14.0904 275.6446,-7.0946"/>
<text text-anchor="middle" x="308.5" y="-14.3" font-family="Times,serif" font-size="14.00" fill="#000000">[0, 1, 3]</text>
</g>
</g>
</svg>
