<?xml version="1.0" encoding="UTF-8" standalone="no"?>
<!DOCTYPE svg PUBLIC "-//W3C//DTD SVG 1.1//EN"
 "http://www.w3.org/Graphics/SVG/1.1/DTD/svg11.dtd">
<!-- Generated by graphviz version 2.40.1 (20161225.0304)
 -->
<!-- Pages: 1 -->
<svg width="390pt" height="518pt"
 viewBox="0.00 0.00 390.00 518.00" xmlns="http://www.w3.org/2000/svg" xmlns:xlink="http://www.w3.org/1999/xlink">
<g id="graph0" class="graph" transform="scale(1 1) rotate(0) translate(4 514)">
<polygon fill="#ffffff" stroke="transparent" points="-4,4 -4,-514 386,-514 386,4 -4,4"/>
<!-- 0 -->
<g id="node1" class="node">
<title>0</title>
<ellipse fill="none" stroke="#000000" cx="115" cy="-492" rx="27" ry="18"/>
<text text-anchor="middle" x="115" y="-488.3" font-family="Times,serif" font-size="14.00" fill="#000000">0</text>
</g>
<!-- 12,1,0 -->
<g id="node2" class="node">
<title>12,1,0</title>
<ellipse fill="none" stroke="#ffa500" cx="63" cy="-334" rx="33.2948" ry="18"/>
<text text-anchor="middle" x="63" y="-330.3" font-family="Times,serif" font-size="14.00" fill="#000000">12,1,0</text>
</g>
<!-- 0&#45;&gt;12,1,0 -->
<g id="edge1" class="edge">
<title>0&#45;&gt;12,1,0</title>
<path fill="none" stroke="#000000" d="M94.085,-480.6058C77.3252,-470.1685 55.0137,-453.0085 45,-431 34.82,-408.626 41.7111,-380.8528 49.7322,-360.7658"/>
<polygon fill="#000000" stroke="#000000" points="52.9475,-362.1484 53.6908,-351.5797 46.519,-359.3781 52.9475,-362.1484"/>
<text text-anchor="middle" x="59" y="-411.7" font-family="Times,serif" font-size="6.00" fill="#000000">*[[3],[3]]*</text>
</g>
<!-- 14,1,0 -->
<g id="node3" class="node">
<title>14,1,0</title>
<ellipse fill="none" stroke="#ffa500" cx="115" cy="-413" rx="33.2948" ry="18"/>
<text text-anchor="middle" x="115" y="-409.3" font-family="Times,serif" font-size="14.00" fill="#000000">14,1,0</text>
</g>
<!-- 0&#45;&gt;14,1,0 -->
<g id="edge2" class="edge">
<title>0&#45;&gt;14,1,0</title>
<path fill="none" stroke="#000000" d="M115,-473.6772C115,-464.1053 115,-452.1777 115,-441.4371"/>
<polygon fill="#000000" stroke="#000000" points="118.5001,-441.2234 115,-431.2234 111.5001,-441.2234 118.5001,-441.2234"/>
<text text-anchor="middle" x="129" y="-451.2" font-family="Times,serif" font-size="6.00" fill="#000000">*[[0],[0]]*</text>
</g>
<!-- 16 -->
<g id="node4" class="node">
<title>16</title>
<ellipse fill="none" stroke="#ffa500" cx="172" cy="-255" rx="27" ry="18"/>
<text text-anchor="middle" x="172" y="-251.3" font-family="Times,serif" font-size="14.00" fill="#000000">16</text>
</g>
<!-- 0&#45;&gt;16 -->
<g id="edge3" class="edge">
<title>0&#45;&gt;16</title>
<path fill="none" stroke="#000000" d="M138.6353,-483.1086C159.8135,-473.7227 189.5488,-456.6911 203,-431 228.4539,-382.3846 203.9377,-316.9332 186.3501,-281.1163"/>
<polygon fill="#000000" stroke="#000000" points="189.2804,-279.1581 181.6204,-271.8386 183.044,-282.3373 189.2804,-279.1581"/>
<text text-anchor="middle" x="227" y="-372.2" font-family="Times,serif" font-size="6.00" fill="#000000">*[[2],[2]]*</text>
</g>
<!-- 12,1,0&#45;&gt;16 -->
<g id="edge9" class="edge">
<title>12,1,0&#45;&gt;16</title>
<path fill="none" stroke="#000000" d="M73.1713,-316.4627C78.7744,-307.9472 86.3465,-298.0578 95,-291 107.6364,-280.6937 123.7102,-272.5773 137.8996,-266.6806"/>
<polygon fill="#000000" stroke="#000000" points="139.3366,-269.8764 147.3566,-262.9532 136.7697,-263.3639 139.3366,-269.8764"/>
<text text-anchor="middle" x="109" y="-293.2" font-family="Times,serif" font-size="6.00" fill="#000000">*[[2],[2]]*</text>
</g>
<!-- 9,1,0 -->
<g id="node5" class="node">
<title>9,1,0</title>
<ellipse fill="none" stroke="#0000ff" cx="172" cy="-18" rx="28.6953" ry="18"/>
<text text-anchor="middle" x="172" y="-14.3" font-family="Times,serif" font-size="14.00" fill="#000000">9,1,0</text>
</g>
<!-- 12,1,0&#45;&gt;9,1,0 -->
<g id="edge8" class="edge">
<title>12,1,0&#45;&gt;9,1,0</title>
<path fill="none" stroke="#000000" d="M42.0219,-320.0508C23.6952,-306.0147 0,-282.5417 0,-255 0,-255 0,-255 0,-97 0,-67.4874 84.6802,-40.4966 135.2072,-27.0186"/>
<polygon fill="#000000" stroke="#000000" points="136.3337,-30.3419 145.125,-24.4289 134.5651,-23.5689 136.3337,-30.3419"/>
<text text-anchor="middle" x="25" y="-174.7" font-family="Times,serif" font-size="6.00" fill="#000000">*[[0],[1]],[[3],[3]]*</text>
</g>
<!-- 14,1,0&#45;&gt;12,1,0 -->
<g id="edge10" class="edge">
<title>14,1,0&#45;&gt;12,1,0</title>
<path fill="none" stroke="#000000" d="M103.7168,-395.8582C96.7663,-385.2988 87.7237,-371.561 79.9261,-359.7147"/>
<polygon fill="#000000" stroke="#000000" points="82.6829,-357.5369 74.2612,-351.1084 76.8358,-361.3856 82.6829,-357.5369"/>
<text text-anchor="middle" x="104" y="-372.2" font-family="Times,serif" font-size="6.00" fill="#000000">*[[3],[3]]*</text>
</g>
<!-- 14,1,0&#45;&gt;14,1,0 -->
<g id="edge11" class="edge">
<title>14,1,0&#45;&gt;14,1,0</title>
<path fill="none" stroke="#000000" d="M145.4551,-420.1093C156.8046,-420.3424 166.1471,-417.9727 166.1471,-413 166.1471,-409.659 161.9297,-407.493 155.7199,-406.5019"/>
<polygon fill="#000000" stroke="#000000" points="155.6455,-402.9914 145.4551,-405.8907 155.2293,-409.979 155.6455,-402.9914"/>
<text text-anchor="middle" x="180.1471" y="-411.7" font-family="Times,serif" font-size="6.00" fill="#000000">*[[0],[0]]*</text>
</g>
<!-- 14,1,0&#45;&gt;16 -->
<g id="edge12" class="edge">
<title>14,1,0&#45;&gt;16</title>
<path fill="none" stroke="#000000" d="M121.4278,-395.1825C131.3586,-367.6551 150.5019,-314.5913 162.176,-282.2315"/>
<polygon fill="#000000" stroke="#000000" points="165.5814,-283.1056 165.6826,-272.5113 158.9968,-280.7301 165.5814,-283.1056"/>
<text text-anchor="middle" x="163" y="-332.7" font-family="Times,serif" font-size="6.00" fill="#000000">*[[2],[2]]*</text>
</g>
<!-- 11,1,0 -->
<g id="node6" class="node">
<title>11,1,0</title>
<ellipse fill="none" stroke="#0000ff" cx="172" cy="-97" rx="33.2948" ry="18"/>
<text text-anchor="middle" x="172" y="-93.3" font-family="Times,serif" font-size="14.00" fill="#000000">11,1,0</text>
</g>
<!-- 16&#45;&gt;11,1,0 -->
<g id="edge13" class="edge">
<title>16&#45;&gt;11,1,0</title>
<path fill="none" stroke="#000000" d="M154.1812,-241.1248C141.4022,-229.965 125.2186,-213.0448 118,-194 112.3292,-179.0387 112.3292,-172.9613 118,-158 123.7022,-142.9559 134.9985,-129.2376 145.7917,-118.6371"/>
<polygon fill="#000000" stroke="#000000" points="148.179,-121.1966 153.1087,-111.8184 143.4067,-116.0755 148.179,-121.1966"/>
<text text-anchor="middle" x="143" y="-174.7" font-family="Times,serif" font-size="6.00" fill="#000000">*[[1],[1]],[[3],[3]]*</text>
</g>
<!-- 18 -->
<g id="node7" class="node">
<title>18</title>
<ellipse fill="none" stroke="#ff0000" cx="245" cy="-176" rx="27" ry="18"/>
<text text-anchor="middle" x="245" y="-172.3" font-family="Times,serif" font-size="14.00" fill="#000000">18</text>
</g>
<!-- 16&#45;&gt;18 -->
<g id="edge14" class="edge">
<title>16&#45;&gt;18</title>
<path fill="none" stroke="#000000" d="M186.4225,-239.3921C197.0207,-227.9228 211.5968,-212.1486 223.5574,-199.205"/>
<polygon fill="#000000" stroke="#000000" points="226.3914,-201.2953 230.6075,-191.5754 221.2502,-196.5446 226.3914,-201.2953"/>
<text text-anchor="middle" x="235" y="-214.2" font-family="Times,serif" font-size="6.00" fill="#000000">*[[0],[0]],[[2],[2]]*</text>
</g>
<!-- 9,1,0&#45;&gt;16 -->
<g id="edge5" class="edge">
<title>9,1,0&#45;&gt;16</title>
<path fill="none" stroke="#000000" d="M196.4165,-27.5602C256.0492,-52.3207 400.5779,-121.6696 349,-194 332.377,-217.3113 254.8061,-237.4272 208.047,-247.7055"/>
<polygon fill="#000000" stroke="#000000" points="207.0463,-244.3406 198.0063,-249.8659 208.5188,-251.184 207.0463,-244.3406"/>
<text text-anchor="middle" x="368" y="-135.2" font-family="Times,serif" font-size="6.00" fill="#000000">*[[2],[2]]*</text>
</g>
<!-- 9,1,0&#45;&gt;9,1,0 -->
<g id="edge4" class="edge">
<title>9,1,0&#45;&gt;9,1,0</title>
<path fill="none" stroke="#000000" d="M198.3467,-25.0624C209.3068,-25.5494 218.5975,-23.1953 218.5975,-18 218.5975,-14.5906 214.5963,-12.4047 208.7479,-11.4425"/>
<polygon fill="#000000" stroke="#000000" points="208.5047,-7.9267 198.3467,-10.9376 208.1652,-14.9184 208.5047,-7.9267"/>
<text text-anchor="middle" x="243.5975" y="-16.7" font-family="Times,serif" font-size="6.00" fill="#000000">*[[0],[1]],[[3],[3]]*</text>
</g>
<!-- 11,1,0&#45;&gt;16 -->
<g id="edge7" class="edge">
<title>11,1,0&#45;&gt;16</title>
<path fill="none" stroke="#000000" d="M172,-115.3999C172,-142.8006 172,-194.5491 172,-226.763"/>
<polygon fill="#000000" stroke="#000000" points="168.5001,-226.8754 172,-236.8754 175.5001,-226.8754 168.5001,-226.8754"/>
<text text-anchor="middle" x="186" y="-174.7" font-family="Times,serif" font-size="6.00" fill="#000000">*[[2],[2]]*</text>
</g>
<!-- 11,1,0&#45;&gt;9,1,0 -->
<g id="edge6" class="edge">
<title>11,1,0&#45;&gt;9,1,0</title>
<path fill="none" stroke="#000000" d="M172,-78.6772C172,-69.1053 172,-57.1777 172,-46.4371"/>
<polygon fill="#000000" stroke="#000000" points="175.5001,-46.2234 172,-36.2234 168.5001,-46.2234 175.5001,-46.2234"/>
<text text-anchor="middle" x="197" y="-56.2" font-family="Times,serif" font-size="6.00" fill="#000000">*[[0],[1]],[[3],[3]]*</text>
</g>
<!-- 18&#45;&gt;11,1,0 -->
<g id="edge15" class="edge">
<title>18&#45;&gt;11,1,0</title>
<path fill="none" stroke="#000000" d="M230.5775,-160.3921C220.1169,-149.0717 205.7811,-133.5576 193.9099,-120.7108"/>
<polygon fill="#000000" stroke="#000000" points="196.2509,-118.087 186.8937,-113.1178 191.1098,-122.8376 196.2509,-118.087"/>
<text text-anchor="middle" x="235" y="-135.2" font-family="Times,serif" font-size="6.00" fill="#000000">*[[1],[1]],[[3],[3]]*</text>
</g>
<!-- 18&#45;&gt;18 -->
<g id="edge16" class="edge">
<title>18&#45;&gt;18</title>
<path fill="none" stroke="#000000" d="M269.9889,-183.0398C280.7697,-183.6161 290,-181.2695 290,-176 290,-172.5419 286.0248,-170.3425 280.245,-169.402"/>
<polygon fill="#000000" stroke="#000000" points="280.1303,-165.8939 269.9889,-168.9602 279.829,-172.8874 280.1303,-165.8939"/>
<text text-anchor="middle" x="315" y="-174.7" font-family="Times,serif" font-size="6.00" fill="#000000">*[[0],[0]],[[2],[2]]*</text>
</g>
</g>
</svg>
